<svg width="24" height="24" viewBox="0 0 24 24" fill="none" xmlns="http://www.w3.org/2000/svg">
<path d="M12 7C12.3956 7 12.7822 6.8827 13.1111 6.66294C13.44 6.44318 13.6964 6.13082 13.8478 5.76537C13.9991 5.39992 14.0387 4.99778 13.9616 4.60982C13.8844 4.22186 13.6939 3.86549 13.4142 3.58579C13.1345 3.30608 12.7781 3.1156 12.3902 3.03843C12.0022 2.96126 11.6001 3.00087 11.2346 3.15224C10.8692 3.30362 10.5568 3.55996 10.3371 3.88886C10.1173 4.21776 10 4.60444 10 5C10 5.53043 10.2107 6.03914 10.5858 6.41421C10.9609 6.78929 11.4696 7 12 7ZM12 17C11.6044 17 11.2178 17.1173 10.8889 17.3371C10.56 17.5568 10.3036 17.8692 10.1522 18.2346C10.0009 18.6001 9.96126 19.0022 10.0384 19.3902C10.1156 19.7781 10.3061 20.1345 10.5858 20.4142C10.8655 20.6939 11.2219 20.8844 11.6098 20.9616C11.9978 21.0387 12.3999 20.9991 12.7654 20.8478C13.1308 20.6964 13.4432 20.44 13.6629 20.1111C13.8827 19.7822 14 19.3956 14 19C14 18.4696 13.7893 17.9609 13.4142 17.5858C13.0391 17.2107 12.5304 17 12 17ZM12 10C11.6044 10 11.2178 10.1173 10.8889 10.3371C10.56 10.5568 10.3036 10.8692 10.1522 11.2346C10.0009 11.6001 9.96126 12.0022 10.0384 12.3902C10.1156 12.7781 10.3061 13.1345 10.5858 13.4142C10.8655 13.6939 11.2219 13.8844 11.6098 13.9616C11.9978 14.0387 12.3999 13.9991 12.7654 13.8478C13.1308 13.6964 13.4432 13.44 13.6629 13.1111C13.8827 12.7822 14 12.3956 14 12C14 11.4696 13.7893 10.9609 13.4142 10.5858C13.0391 10.2107 12.5304 10 12 10Z" fill="#010102" fill-opacity="0.96"/>
<path d="M12.8631 6.29175C12.6076 6.46246 12.3073 6.55357 12 6.55357C11.588 6.55357 11.1928 6.38989 10.9015 6.09854C10.6101 5.80719 10.4464 5.41203 10.4464 5C10.4464 4.69273 10.5375 4.39237 10.7083 4.13688C10.879 3.8814 11.1216 3.68227 11.4055 3.56469C11.6894 3.4471 12.0017 3.41634 12.3031 3.47628C12.6045 3.53623 12.8813 3.68419 13.0985 3.90146C13.3158 4.11873 13.4638 4.39555 13.5237 4.69691L13.9616 4.60982L13.5237 4.69691C13.5837 4.99828 13.5529 5.31065 13.4353 5.59453C13.3177 5.8784 13.1186 6.12104 12.8631 6.29175ZM11.1369 17.7083C11.3924 17.5375 11.6927 17.4464 12 17.4464C12.412 17.4464 12.8072 17.6101 13.0985 17.9015C13.3899 18.1928 13.5536 18.588 13.5536 19C13.5536 19.3073 13.4625 19.6076 13.2917 19.8631C13.121 20.1186 12.8784 20.3177 12.5945 20.4353C12.3106 20.5529 11.9983 20.5837 11.6969 20.5237C11.3956 20.4638 11.1187 20.3158 10.9015 20.0985C10.6842 19.8813 10.5362 19.6045 10.4763 19.3031C10.4163 19.0017 10.4471 18.6894 10.5647 18.4055C10.6823 18.1216 10.8814 17.879 11.1369 17.7083ZM11.1369 10.7083C11.3924 10.5375 11.6927 10.4464 12 10.4464C12.412 10.4464 12.8072 10.6101 13.0985 10.9015C13.3899 11.1928 13.5536 11.588 13.5536 12C13.5536 12.3073 13.4625 12.6076 13.2917 12.8631C13.121 13.1186 12.8784 13.3177 12.5945 13.4353C12.3106 13.5529 11.9983 13.5837 11.6969 13.5237C11.3956 13.4638 11.1187 13.3158 10.9015 13.0985C10.6842 12.8813 10.5362 12.6045 10.4763 12.3031C10.4163 12.0017 10.4471 11.6894 10.5647 11.4055C10.6823 11.1216 10.8814 10.879 11.1369 10.7083Z" stroke="#010102" stroke-opacity="0.96" stroke-width="0.892857"/>
</svg>
