<svg width="24" height="24" viewBox="0 0 24 24" fill="none" xmlns="http://www.w3.org/2000/svg">
<g clip-path="url(#clip0)">
<path d="M8.33336 22.6663L1 20.6663V1.33301L8.33336 3.33298V22.6663Z" fill="#D4F5FE"/>
<path d="M14.9166 2.25087L8.25 4.06904L8.25 21.6445L14.9166 19.8264V2.25087Z" fill="white"/>
<path d="M22.9999 22.6663L15.6665 20.6663V1.33301L22.9999 3.33298V22.6663Z" fill="#D4F5FE"/>
<path d="M23.26 2.36661L15.9267 0.36659H15.8867H15.78H15.5467H15.44H15.4L8.33334 2.29995L1.26 0.36659C0.726657 0.223293 0.177985 0.538621 0.0346886 1.07192C0.0113448 1.15728 1.06047e-06 1.24461 1.06047e-06 1.33329V20.6666C-0.00065519 21.1193 0.303329 21.5159 0.740017 21.6333L8.07333 23.6333C8.24602 23.6806 8.42733 23.6806 8.60002 23.6333L15.6667 21.7L22.74 23.6266C23.2734 23.77 23.8221 23.4546 23.9654 22.9213C23.988 22.8379 23.9993 22.752 24 22.6666V3.33326C24.0007 2.88059 23.6967 2.48393 23.26 2.36661ZM2.00002 2.63993L7.33336 4.09325V21.3599L2.00002 19.8999V2.63993ZM9.33333 4.09995L14.6667 2.64664V19.9L9.33333 21.3533V4.09995ZM22 21.3599L16.6666 19.9066V2.63993L22 4.09325V21.3599Z" fill="#0A0529"/>
</g>
<defs>
<clipPath id="clip0">
<rect width="24" height="24" fill="white"/>
</clipPath>
</defs>
</svg>
