<svg width="16" height="17" viewBox="0 0 16 17" fill="none" xmlns="http://www.w3.org/2000/svg">
<path d="M5.80671 5.64026L7.33337 4.10692V10.5003C7.33337 10.6771 7.40361 10.8466 7.52864 10.9717C7.65366 11.0967 7.82323 11.1669 8.00004 11.1669C8.17685 11.1669 8.34642 11.0967 8.47145 10.9717C8.59647 10.8466 8.66671 10.6771 8.66671 10.5003V4.10692L10.1934 5.64026C10.2554 5.70274 10.3291 5.75234 10.4103 5.78618C10.4916 5.82003 10.5787 5.83746 10.6667 5.83746C10.7547 5.83746 10.8419 5.82003 10.9231 5.78618C11.0043 5.75234 11.0781 5.70274 11.14 5.64026C11.2025 5.57828 11.2521 5.50455 11.286 5.42331C11.3198 5.34207 11.3372 5.25493 11.3372 5.16692C11.3372 5.07892 11.3198 4.99178 11.286 4.91054C11.2521 4.8293 11.2025 4.75557 11.14 4.69359L8.47337 2.02692C8.40997 1.96623 8.33521 1.91865 8.25338 1.88692C8.09107 1.82024 7.90902 1.82024 7.74671 1.88692C7.66487 1.91865 7.59011 1.96623 7.52671 2.02692L4.86004 4.69359C4.79788 4.75575 4.74857 4.82954 4.71493 4.91076C4.68129 4.99197 4.66398 5.07902 4.66398 5.16692C4.66398 5.25483 4.68129 5.34187 4.71493 5.42309C4.74857 5.5043 4.79788 5.5781 4.86004 5.64026C4.9222 5.70242 4.99599 5.75172 5.07721 5.78536C5.15842 5.819 5.24547 5.83632 5.33337 5.83632C5.42128 5.83632 5.50833 5.819 5.58954 5.78536C5.67076 5.75172 5.74455 5.70242 5.80671 5.64026ZM14 9.83359C13.8232 9.83359 13.6537 9.90383 13.5286 10.0289C13.4036 10.1539 13.3334 10.3234 13.3334 10.5003V13.1669C13.3334 13.3437 13.2631 13.5133 13.1381 13.6383C13.0131 13.7634 12.8435 13.8336 12.6667 13.8336H3.33337C3.15656 13.8336 2.98699 13.7634 2.86197 13.6383C2.73695 13.5133 2.66671 13.3437 2.66671 13.1669V10.5003C2.66671 10.3234 2.59647 10.1539 2.47145 10.0289C2.34642 9.90383 2.17685 9.83359 2.00004 9.83359C1.82323 9.83359 1.65366 9.90383 1.52864 10.0289C1.40361 10.1539 1.33337 10.3234 1.33337 10.5003V13.1669C1.33337 13.6974 1.54409 14.2061 1.91916 14.5811C2.29423 14.9562 2.80294 15.1669 3.33337 15.1669H12.6667C13.1971 15.1669 13.7058 14.9562 14.0809 14.5811C14.456 14.2061 14.6667 13.6974 14.6667 13.1669V10.5003C14.6667 10.3234 14.5965 10.1539 14.4714 10.0289C14.3464 9.90383 14.1769 9.83359 14 9.83359Z" fill="#0A0529"/>
</svg>
