<svg width="25" height="24" viewBox="0 0 25 24" fill="none" xmlns="http://www.w3.org/2000/svg">
<path d="M20.5 8.94C20.4896 8.84813 20.4695 8.75763 20.44 8.67V8.58C20.3919 8.47718 20.3278 8.38267 20.25 8.3L14.25 2.3C14.1673 2.22222 14.0728 2.15808 13.97 2.11C13.9402 2.10576 13.9099 2.10576 13.88 2.11C13.7784 2.05174 13.6662 2.01434 13.55 2H7.5C6.70435 2 5.94129 2.31607 5.37868 2.87868C4.81607 3.44129 4.5 4.20435 4.5 5V19C4.5 19.7956 4.81607 20.5587 5.37868 21.1213C5.94129 21.6839 6.70435 22 7.5 22H17.5C18.2956 22 19.0587 21.6839 19.6213 21.1213C20.1839 20.5587 20.5 19.7956 20.5 19V9C20.5 9 20.5 9 20.5 8.94ZM14.5 5.41L17.09 8H15.5C15.2348 8 14.9804 7.89464 14.7929 7.70711C14.6054 7.51957 14.5 7.26522 14.5 7V5.41ZM18.5 19C18.5 19.2652 18.3946 19.5196 18.2071 19.7071C18.0196 19.8946 17.7652 20 17.5 20H7.5C7.23478 20 6.98043 19.8946 6.79289 19.7071C6.60536 19.5196 6.5 19.2652 6.5 19V5C6.5 4.73478 6.60536 4.48043 6.79289 4.29289C6.98043 4.10536 7.23478 4 7.5 4H12.5V7C12.5 7.79565 12.8161 8.55871 13.3787 9.12132C13.9413 9.68393 14.7044 10 15.5 10H18.5V19ZM14.5 14H13.5V13C13.5 12.7348 13.3946 12.4804 13.2071 12.2929C13.0196 12.1054 12.7652 12 12.5 12C12.2348 12 11.9804 12.1054 11.7929 12.2929C11.6054 12.4804 11.5 12.7348 11.5 13V14H10.5C10.2348 14 9.98043 14.1054 9.79289 14.2929C9.60536 14.4804 9.5 14.7348 9.5 15C9.5 15.2652 9.60536 15.5196 9.79289 15.7071C9.98043 15.8946 10.2348 16 10.5 16H11.5V17C11.5 17.2652 11.6054 17.5196 11.7929 17.7071C11.9804 17.8946 12.2348 18 12.5 18C12.7652 18 13.0196 17.8946 13.2071 17.7071C13.3946 17.5196 13.5 17.2652 13.5 17V16H14.5C14.7652 16 15.0196 15.8946 15.2071 15.7071C15.3946 15.5196 15.5 15.2652 15.5 15C15.5 14.7348 15.3946 14.4804 15.2071 14.2929C15.0196 14.1054 14.7652 14 14.5 14Z" fill="#0A0529"/>
</svg>
