<svg width="20" height="16" viewBox="0 0 16 11" fill="none" xmlns="http://www.w3.org/2000/svg">
  <path d="M7.99999 3.5499C7.44303 3.5499 6.90889 3.77115 6.51506 4.16498C6.12124 4.5588 5.89999 5.09295 5.89999 5.6499C5.89999 6.20686 6.12124 6.741 6.51506 7.13483C6.90889 7.52865 7.44303 7.7499 7.99999 7.7499C8.55694 7.7499 9.09109 7.52865 9.48491 7.13483C9.87874 6.741 10.1 6.20686 10.1 5.6499C10.1 5.09295 9.87874 4.5588 9.48491 4.16498C9.09109 3.77115 8.55694 3.5499 7.99999 3.5499ZM7.99999 9.1499C7.07173 9.1499 6.18149 8.78115 5.52511 8.12478C4.86874 7.4684 4.49999 6.57816 4.49999 5.6499C4.49999 4.72164 4.86874 3.83141 5.52511 3.17503C6.18149 2.51865 7.07173 2.1499 7.99999 2.1499C8.92825 2.1499 9.81849 2.51865 10.4749 3.17503C11.1312 3.83141 11.5 4.72164 11.5 5.6499C11.5 6.57816 11.1312 7.4684 10.4749 8.12478C9.81849 8.78115 8.92825 9.1499 7.99999 9.1499ZM7.99999 0.399902C4.49999 0.399902 1.51099 2.5769 0.299988 5.6499C1.51099 8.7229 4.49999 10.8999 7.99999 10.8999C11.5 10.8999 14.489 8.7229 15.7 5.6499C14.489 2.5769 11.5 0.399902 7.99999 0.399902Z" fill="#0A0529"/>
</svg>
